HIERARCHY
ROOT Hips
{
	OFFSET 0.000000 0.000000 0.000000
	CHANNELS 6 Xposition Yposition Zposition Xrotation Yrotation Zrotation
	JOINT LeftUpLeg_virtual
	{
		OFFSET 0.000000 0.000000 0.000000
		CHANNELS 3 Xrotation Yrotation Zrotation
		JOINT LeftUpLeg
		{
			OFFSET 11.394100 -6.187798 -0.413800
			CHANNELS 3 Xrotation Yrotation Zrotation
			JOINT LeftLeg
			{
				OFFSET 0.430247 -32.302673 3.732800
				CHANNELS 3 Xrotation Yrotation Zrotation
				JOINT LeftFoot
				{
					OFFSET -0.430247 -48.264931 -6.423300
					CHANNELS 3 Xrotation Yrotation Zrotation
					JOINT LeftToeBase
					{
						OFFSET 4.230900 -16.068199 23.438400
						CHANNELS 3 Xrotation Yrotation Zrotation
						JOINT LeftToe_End
						{
							OFFSET 4.510700 0.695400 19.974600
							CHANNELS 3 Xrotation Yrotation Zrotation
							End Site
							{
								OFFSET 0 0 0
							}
						}
					}
				}
			}
		}
	}
	JOINT RightUpLeg_virtual
	{
		OFFSET 0.000000 0.000000 0.000000
		CHANNELS 3 Xrotation Yrotation Zrotation
		JOINT RightUpLeg
		{
			OFFSET -11.333700 -6.187798 -0.413800
			CHANNELS 3 Xrotation Yrotation Zrotation
			JOINT RightLeg
			{
				OFFSET -0.430392 -32.302628 3.733000
				CHANNELS 3 Xrotation Yrotation Zrotation
				JOINT RightFoot
				{
					OFFSET 0.430392 -48.264973 -6.423500
					CHANNELS 3 Xrotation Yrotation Zrotation
					JOINT RightToeBase
					{
						OFFSET -4.230900 -16.068199 23.438400
						CHANNELS 3 Xrotation Yrotation Zrotation
						JOINT RightToe_End
						{
							OFFSET -4.510700 0.695400 19.974600
							CHANNELS 3 Xrotation Yrotation Zrotation
							End Site
							{
								OFFSET 0 0 0
							}
						}
					}
				}
			}
		}
	}
	JOINT Spine_virtual
	{
		OFFSET 0.000000 0.000000 0.000000
		CHANNELS 3 Xrotation Yrotation Zrotation
		JOINT Spine
		{
			OFFSET -0.002400 12.777504 0.315300
			CHANNELS 3 Xrotation Yrotation Zrotation
			JOINT Spine1
			{
				OFFSET -0.002067 5.816869 0.032633
				CHANNELS 3 Xrotation Yrotation Zrotation
				JOINT Spine1_split
				{
					OFFSET -0.002067 5.816869 0.032633
					CHANNELS 3 Xrotation Yrotation Zrotation
					JOINT Spine2
					{
						OFFSET -0.002067 5.816869 0.032633
						CHANNELS 3 Xrotation Yrotation Zrotation
						JOINT Neck_virtual
						{
							OFFSET 0.000000 0.000000 0.000000
							CHANNELS 3 Xrotation Yrotation Zrotation
							JOINT Neck
							{
								OFFSET -0.003700 21.199493 -0.826900
								CHANNELS 3 Xrotation Yrotation Zrotation
								JOINT Head
								{
									OFFSET 0.000000 20.442200 4.834800
									CHANNELS 3 Xrotation Yrotation Zrotation
									JOINT HeadTop_End
									{
										OFFSET 0.000000 34.668396 4.968400
										CHANNELS 3 Xrotation Yrotation Zrotation
										End Site
										{
											OFFSET 0 0 0
										}
									}
								}
							}
						}
						JOINT LeftShoulder_virtual
						{
							OFFSET 0.000000 0.000000 0.000000
							CHANNELS 3 Xrotation Yrotation Zrotation
							JOINT LeftShoulder
							{
								OFFSET 3.288150 8.794197 -1.372250
								CHANNELS 3 Xrotation Yrotation Zrotation
								JOINT LeftShoulder_split
								{
									OFFSET 3.288150 8.794197 -1.372250
									CHANNELS 3 Xrotation Yrotation Zrotation
									JOINT LeftArm
									{
										OFFSET 11.953299 -2.279007 -0.146200
										CHANNELS 3 Xrotation Yrotation Zrotation
										JOINT LeftForeArm
										{
											OFFSET 18.448900 0.000000 0.000000
											CHANNELS 3 Xrotation Yrotation Zrotation
											JOINT LeftHand
											{
												OFFSET 29.527798 0.000000 0.000000
												CHANNELS 3 Xrotation Yrotation Zrotation
												End Site
												{
													OFFSET 0 0 0
												}
											}
										}
									}
								}
							}
						}
						JOINT RightShoulder_virtual
						{
							OFFSET 0.000000 0.000000 0.000000
							CHANNELS 3 Xrotation Yrotation Zrotation
							JOINT RightShoulder
							{
								OFFSET -3.249400 8.794197 -1.372250
								CHANNELS 3 Xrotation Yrotation Zrotation
								JOINT RightShoulder_split
								{
									OFFSET -3.249400 8.794197 -1.372250
									CHANNELS 3 Xrotation Yrotation Zrotation
									JOINT RightArm
									{
										OFFSET -11.953299 -2.279007 -0.146200
										CHANNELS 3 Xrotation Yrotation Zrotation
										JOINT RightForeArm
										{
											OFFSET -18.448900 0.000000 0.000000
											CHANNELS 3 Xrotation Yrotation Zrotation
											JOINT RightHand
											{
												OFFSET -29.527802 0.000000 0.000000
												CHANNELS 3 Xrotation Yrotation Zrotation
												End Site
												{
													OFFSET 0 0 0
												}
											}
										}
									}
								}
							}
						}
					}
				}
			}
		}
	}
}
MOTION
Frames: 10
Frame Time: 0.03333333
-0.301238 89.714905 0.171703 0.000000 0.000000 0.000000 3.020392 -58.275147 6.520218 -38.843552 8.050729 26.435723 42.590471 -7.221112 -9.679307 -5.196405 -2.778835 -10.074065 -0.327618 1.238427 0.837254 0.000000 0.000000 0.000000 3.020392 -58.275147 6.520218 -36.671429 -6.164110 -25.580189 47.512643 1.674749 -7.598835 -14.422144 3.648991 21.060035 -0.322762 -0.997444 -0.837125 0.000000 0.000000 0.000000 3.020392 -58.275147 6.520218 11.191475 0.139473 -2.738947 8.434585 0.027705 -5.592322 0.000000 0.000000 0.000000 0.000000 0.000000 0.000000 8.457063 0.027849 -5.591865 -21.555643 25.063369 12.062562 -0.294041 25.465758 -3.208976 0.000000 0.000000 0.000000 8.457063 0.027849 -5.591865 -6.221673 -11.503857 -4.023830 0.000000 0.000000 0.000000 -23.062175 9.568546 -36.639594 0.046100 -43.169121 -0.011176 0.000000 0.000000 0.000000 8.457063 0.027849 -5.591865 -5.488239 10.658262 2.466535 0.000000 0.000000 0.000000 -41.473814 -26.755594 30.079077 -155.044529 68.137018 156.691547 0.000000 0.000000 0.000000 
-0.469411 89.502449 0.474087 0.000000 0.000000 0.000000 1.760426 -58.212930 5.276987 -38.552258 7.796538 26.586043 43.528218 -7.479816 -9.585768 -5.788841 -2.660127 -10.026695 -0.327774 1.244767 0.837249 0.000000 0.000000 0.000000 1.760426 -58.212930 5.276987 -36.366751 -6.920592 -26.650758 47.987833 2.888187 -6.918759 -14.791760 3.705733 20.585290 -0.356253 -0.991228 -0.912633 0.000000 0.000000 0.000000 1.760426 -58.212930 5.276987 11.142186 0.096707 -2.650113 8.334204 -0.045755 -5.404250 0.000000 0.000000 0.000000 0.000000 0.000000 0.000000 8.356679 -0.045670 -5.403784 -21.836694 24.626049 12.153080 0.665323 24.715294 -2.781582 0.000000 0.000000 0.000000 8.356679 -0.045670 -5.403784 -6.328841 -11.488481 -3.983643 0.000000 0.000000 0.000000 -22.131662 10.073026 -36.144026 2.769411 -44.886873 0.926440 0.000000 0.000000 0.000000 8.356679 -0.045670 -5.403784 -5.548072 9.866005 1.937130 0.000000 0.000000 0.000000 -37.030526 -24.874087 32.856922 -164.018319 70.090841 164.779174 0.000000 0.000000 0.000000 
-0.983858 89.083595 1.191959 0.000000 0.000000 0.000000 -0.004036 -57.928050 3.516033 -38.212672 7.478557 27.087861 45.203520 -8.298828 -9.766353 -6.999198 -2.511160 -9.716707 -0.327756 1.244807 0.837245 0.000000 0.000000 0.000000 -0.004036 -57.928050 3.516033 -35.279590 -7.480556 -27.407558 48.662034 3.405701 -6.731499 -15.674811 3.556000 20.806629 -0.489779 -0.987284 -1.013595 0.000000 0.000000 0.000000 -0.004036 -57.928050 3.516033 10.987772 -0.003432 -2.429006 8.021426 -0.218861 -4.943920 0.000000 0.000000 0.000000 0.000000 0.000000 0.000000 8.043892 -0.218787 -4.943429 -22.139445 23.571236 12.309604 3.256177 23.328159 -2.898965 0.000000 0.000000 0.000000 8.043892 -0.218787 -4.943429 -6.517722 -11.266695 -3.808846 0.000000 0.000000 0.000000 -19.916941 11.490715 -34.664245 8.966824 -49.187894 3.756289 0.000000 0.000000 0.000000 8.043892 -0.218787 -4.943429 -5.677150 8.006197 0.598005 0.000000 0.000000 0.000000 -27.295041 -19.926481 37.715451 167.963299 72.488292 -168.579628 0.000000 0.000000 0.000000 
-1.712173 88.839523 2.001034 0.000000 0.000000 0.000000 -1.816436 -57.410117 1.618970 -37.521692 7.252603 27.551040 46.448944 -9.258298 -9.827597 -8.123193 -2.387276 -9.379365 -0.356068 1.244368 0.762252 0.000000 0.000000 0.000000 -1.816436 -57.410117 1.618970 -33.247776 -7.948830 -27.360710 48.706229 2.960513 -7.007105 -16.560791 3.316370 21.475484 -0.828125 -0.972359 -1.213753 0.000000 0.000000 0.000000 -1.816436 -57.410117 1.618970 10.732923 -0.122391 -2.151499 7.508710 -0.422823 -4.366855 0.000000 0.000000 0.000000 0.000000 0.000000 0.000000 7.531189 -0.422715 -4.366380 -21.736017 22.273409 12.364533 5.200205 21.513151 -1.423723 0.000000 0.000000 0.000000 7.531189 -0.422715 -4.366380 -6.671757 -10.584869 -3.418112 0.000000 0.000000 0.000000 -17.246737 13.730741 -32.214656 15.504874 -54.870714 8.081111 0.000000 0.000000 0.000000 7.531189 -0.422715 -4.366380 -5.864159 5.845895 -1.136023 0.000000 0.000000 0.000000 -16.889874 -14.076094 40.489047 134.153166 69.231187 -135.011038 0.000000 0.000000 0.000000 
-2.673776 89.240631 2.627499 0.000000 0.000000 0.000000 -3.256867 -56.527503 -0.140328 -35.976239 7.068738 27.635780 45.989194 -9.840347 -9.556564 -8.487344 -2.296512 -9.308417 -0.469953 1.243628 0.461049 0.000000 0.000000 0.000000 -3.256867 -56.527503 -0.140328 -30.091754 -9.201931 -26.449505 47.016526 1.929445 -7.510437 -17.028983 3.158731 22.118502 -1.018905 -0.969470 -1.199829 0.000000 0.000000 0.000000 -3.256867 -56.527503 -0.140328 10.321628 -0.232379 -1.865171 6.683869 -0.605021 -3.764423 0.000000 0.000000 0.000000 0.000000 0.000000 0.000000 6.706351 -0.604953 -3.763943 -19.460759 20.947657 12.091848 5.148825 19.945780 -0.554096 0.000000 0.000000 0.000000 6.706351 -0.604953 -3.763943 -6.731945 -8.817954 -2.534495 0.000000 0.000000 0.000000 -14.611211 17.347642 -27.846785 15.807387 -62.632630 10.018900 0.000000 0.000000 0.000000 6.706351 -0.604953 -3.763943 -6.149599 3.829286 -2.217232 0.000000 0.000000 0.000000 -7.965876 -10.783696 39.300799 117.184394 60.610470 -116.483071 0.000000 0.000000 0.000000 
-3.899691 90.201576 3.228359 0.000000 0.000000 0.000000 -4.756313 -55.005795 -1.981249 -33.334653 7.039823 27.182649 43.967137 -10.224736 -8.995807 -8.565988 -2.293315 -9.144913 -0.524273 1.243724 0.327974 0.000000 0.000000 0.000000 -4.756313 -55.005795 -1.981249 -25.388911 -11.235512 -24.972831 43.527634 0.428302 -8.130142 -17.115119 3.058242 22.799993 -1.146436 -0.975134 -1.035811 0.000000 0.000000 0.000000 -4.756313 -55.005795 -1.981249 9.888879 -0.339159 -1.548428 5.818353 -0.783995 -3.101356 0.000000 0.000000 0.000000 0.000000 0.000000 0.000000 5.840823 -0.783878 -3.100890 -15.781721 19.493869 11.573653 5.665780 18.065572 0.579113 0.000000 0.000000 0.000000 5.840823 -0.783878 -3.100890 -6.706123 -6.010133 -0.294663 0.000000 0.000000 0.000000 -12.280392 22.647384 -22.166805 10.216824 -71.763425 7.796427 0.000000 0.000000 0.000000 5.840823 -0.783878 -3.100890 -6.491974 1.459260 -4.091279 0.000000 0.000000 0.000000 0.842976 -11.247514 37.125404 112.048741 55.607391 -111.142976 0.000000 0.000000 0.000000 
-5.229519 91.473686 3.829384 0.000000 0.000000 0.000000 -5.896376 -53.151842 -3.444884 -30.209353 7.327924 26.690412 40.745900 -10.832691 -8.556750 -8.268034 -2.346971 -8.945110 -0.534435 1.243567 0.318769 0.000000 0.000000 0.000000 -5.896376 -53.151842 -3.444884 -19.896553 -13.568139 -23.224347 38.758202 -0.949663 -8.584499 -16.763094 3.029612 23.359846 -1.286805 -0.979010 -0.882131 0.000000 0.000000 0.000000 -5.896376 -53.151842 -3.444884 9.482221 -0.400899 -1.271566 5.005528 -0.881176 -2.529629 0.000000 0.000000 0.000000 0.000000 0.000000 0.000000 5.028015 -0.881105 -2.529149 -11.418863 17.253876 10.896518 4.869580 15.774488 1.360702 0.000000 0.000000 0.000000 5.028015 -0.881105 -2.529149 -6.864988 -2.507096 2.262228 0.000000 0.000000 0.000000 -11.621988 29.209420 -15.336225 9.839369 -81.243789 9.945839 0.000000 0.000000 0.000000 5.028015 -0.881105 -2.529149 -6.954547 -1.662150 -6.560366 0.000000 0.000000 0.000000 8.595189 -14.098426 35.696324 110.113994 55.009271 -110.591589 0.000000 0.000000 0.000000 
-6.616107 92.930489 4.374344 0.000000 0.000000 0.000000 -6.585008 -51.314959 -4.537205 -26.943160 7.961660 26.405224 36.702530 -11.552019 -8.265722 -7.658480 -2.449207 -8.599510 -0.510509 1.243296 0.398128 0.000000 0.000000 0.000000 -6.585008 -51.314959 -4.537205 -13.616120 -15.551070 -20.911531 32.791967 -1.544018 -8.732096 -16.207484 3.104210 23.539260 -1.631828 -0.962952 -1.053656 0.000000 0.000000 0.000000 -6.585008 -51.314959 -4.537205 9.132666 -0.352900 -1.033936 4.309230 -0.763682 -2.049180 0.000000 0.000000 0.000000 0.000000 0.000000 0.000000 4.331709 -0.763621 -2.048697 -6.239404 15.020616 10.578692 2.956945 14.177474 0.629682 0.000000 0.000000 0.000000 4.331709 -0.763621 -2.048697 -7.295143 1.596054 4.080634 0.000000 0.000000 0.000000 -14.166331 35.477840 -6.707890 -35.558166 -87.759905 -33.089422 0.000000 0.000000 0.000000 4.331709 -0.763621 -2.048697 -7.680833 -6.057226 -9.063444 0.000000 0.000000 0.000000 14.504571 -16.855097 34.471504 108.088898 58.252716 -110.772554 0.000000 0.000000 0.000000 
-7.994398 94.484779 4.904095 0.000000 0.000000 0.000000 -6.906687 -49.695548 -5.459252 -23.732679 8.836818 26.306813 32.277825 -12.135619 -7.985656 -6.901703 -2.584881 -7.980947 -0.469144 1.243314 0.527087 0.000000 0.000000 0.000000 -6.906687 -49.695548 -5.459252 -6.089022 -16.266987 -18.008204 25.364662 -1.339547 -8.200421 -15.438664 3.244438 23.387831 -2.138878 -0.920293 -1.628822 0.000000 0.000000 0.000000 -6.906687 -49.695548 -5.459252 8.821778 -0.191372 -0.759601 3.691371 -0.417030 -1.535716 0.000000 0.000000 0.000000 0.000000 0.000000 0.000000 3.713850 -0.416928 -1.535247 -0.717271 13.045371 10.109547 0.480932 12.914128 -0.572085 0.000000 0.000000 0.000000 3.713850 -0.416928 -1.535247 -7.868578 5.471421 5.982507 0.000000 0.000000 0.000000 -19.907440 40.680624 2.944134 -95.961890 -81.577894 -90.844562 0.000000 0.000000 0.000000 3.713850 -0.416928 -1.535247 -8.764278 -11.311490 -11.685426 0.000000 0.000000 0.000000 18.326567 -17.721592 33.088920 103.566575 61.391666 -107.585124 0.000000 0.000000 0.000000 
-9.288954 95.814987 5.424816 0.000000 0.000000 0.000000 -6.995621 -47.824534 -6.042200 -21.409856 9.284474 25.818854 28.915719 -13.615009 -7.625047 -6.325981 -1.578068 -6.375720 -0.435303 1.243444 0.647736 0.000000 0.000000 0.000000 -6.995621 -47.824534 -6.042200 1.046398 -15.265288 -16.961774 18.717380 0.009004 -5.008503 -14.300553 3.681289 21.524148 -3.907428 -0.786562 -2.097176 0.000000 0.000000 0.000000 -6.995621 -47.824534 -6.042200 8.550715 -0.049823 -0.505989 3.151298 -0.111309 -1.082872 0.000000 0.000000 0.000000 0.000000 0.000000 0.000000 3.173778 -0.111181 -1.082401 4.690166 11.474147 8.599578 -2.909279 11.514461 -0.726115 0.000000 0.000000 0.000000 3.173778 -0.111181 -1.082401 -8.698152 9.680386 8.858603 0.000000 0.000000 0.000000 -26.648912 44.127018 10.714931 -86.200922 -81.364055 -80.939019 0.000000 0.000000 0.000000 3.173778 -0.111181 -1.082401 -10.043161 -16.179053 -14.205387 0.000000 0.000000 0.000000 19.835242 -18.016931 32.179545 99.064524 59.855577 -102.171632 0.000000 0.000000 0.000000 
